<svg xmlns="http://www.w3.org/2000/svg" width="285.21" height="35" viewBox="0 0 285.21 35"><rect class="svg__rect" x="0" y="0" width="123.41" height="35" fill="#FF716F"/><rect class="svg__rect" x="121.41" y="0" width="163.79999999999998" height="35" fill="#ED413E"/><path class="svg__text" d="M13.95 18.19L13.95 18.19L13.95 17.39Q13.95 16.19 14.38 15.27Q14.80 14.35 15.60 13.85Q16.40 13.35 17.45 13.35L17.45 13.35Q18.86 13.35 19.73 14.12Q20.59 14.89 20.73 16.29L20.73 16.29L19.25 16.29Q19.14 15.37 18.71 14.96Q18.28 14.55 17.45 14.55L17.45 14.55Q16.48 14.55 15.97 15.26Q15.45 15.96 15.44 17.33L15.44 17.33L15.44 18.09Q15.44 19.47 15.93 20.20Q16.43 20.92 17.38 20.92L17.38 20.92Q18.25 20.92 18.69 20.53Q19.13 20.14 19.25 19.22L19.25 19.22L20.73 19.22Q20.60 20.59 19.72 21.35Q18.84 22.12 17.38 22.12L17.38 22.12Q16.36 22.12 15.59 21.63Q14.81 21.15 14.39 20.26Q13.97 19.37 13.95 18.19ZM26.52 22L25.04 22L25.04 13.47L28.04 13.47Q29.52 13.47 30.32 14.13Q31.12 14.79 31.12 16.05L31.12 16.05Q31.12 16.90 30.71 17.48Q30.30 18.06 29.56 18.37L29.56 18.37L31.47 21.92L31.47 22L29.89 22L28.17 18.71L26.52 18.71L26.52 22ZM26.52 14.66L26.52 17.52L28.05 17.52Q28.80 17.52 29.22 17.15Q29.64 16.77 29.64 16.11L29.64 16.11Q29.64 15.43 29.25 15.05Q28.86 14.68 28.09 14.66L28.09 14.66L26.52 14.66ZM41.09 22L35.52 22L35.52 13.47L41.05 13.47L41.05 14.66L37.00 14.66L37.00 17.02L40.50 17.02L40.50 18.19L37.00 18.19L37.00 20.82L41.09 20.82L41.09 22ZM46.07 22L44.53 22L47.75 13.47L49.08 13.47L52.31 22L50.76 22L50.06 20.01L46.76 20.01L46.07 22ZM48.41 15.28L47.18 18.82L49.65 18.82L48.41 15.28ZM57.95 14.66L55.31 14.66L55.31 13.47L62.08 13.47L62.08 14.66L59.42 14.66L59.42 22L57.95 22L57.95 14.66ZM71.41 22L65.83 22L65.83 13.47L71.37 13.47L71.37 14.66L67.31 14.66L67.31 17.02L70.82 17.02L70.82 18.19L67.31 18.19L67.31 20.82L71.41 20.82L71.41 22ZM78.06 22L75.61 22L75.61 13.47L78.13 13.47Q79.26 13.47 80.13 13.97Q81.01 14.48 81.49 15.40Q81.97 16.33 81.97 17.52L81.97 17.52L81.97 17.95Q81.97 19.16 81.49 20.08Q81.00 21.00 80.11 21.50Q79.22 22 78.06 22L78.06 22ZM77.09 14.66L77.09 20.82L78.06 20.82Q79.22 20.82 79.85 20.09Q80.47 19.36 80.48 17.99L80.48 17.99L80.48 17.52Q80.48 16.13 79.88 15.40Q79.27 14.66 78.13 14.66L78.13 14.66L77.09 14.66ZM95.52 22L92.41 22L92.41 13.47L95.33 13.47Q96.78 13.47 97.54 14.05Q98.29 14.63 98.29 15.78L98.29 15.78Q98.29 16.36 97.98 16.83Q97.66 17.30 97.05 17.56L97.05 17.56Q97.74 17.75 98.12 18.26Q98.50 18.78 98.50 19.51L98.50 19.51Q98.50 20.71 97.73 21.36Q96.96 22 95.52 22L95.52 22ZM93.89 18.15L93.89 20.82L95.54 20.82Q96.24 20.82 96.63 20.47Q97.02 20.13 97.02 19.51L97.02 19.51Q97.02 18.18 95.66 18.15L95.66 18.15L93.89 18.15ZM93.89 14.66L93.89 17.06L95.35 17.06Q96.04 17.06 96.43 16.75Q96.82 16.43 96.82 15.86L96.82 15.86Q96.82 15.23 96.46 14.95Q96.10 14.66 95.33 14.66L95.33 14.66L93.89 14.66ZM105.01 18.86L102.14 13.47L103.79 13.47L105.75 17.51L107.72 13.47L109.36 13.47L106.50 18.86L106.50 22L105.01 22L105.01 18.86Z" fill="#FFFFFF"/><path class="svg__text" d="M141.37 20.91L135.46 18.72L135.46 16.88L141.37 14.69L141.37 16.45L137.54 17.80L141.37 19.16L141.37 20.91ZM150.36 22L146.39 22L146.39 13.60L150.36 13.60Q151.75 13.60 152.81 14.12Q153.88 14.63 154.47 15.58Q155.06 16.53 155.06 17.80L155.06 17.80Q155.06 19.07 154.47 20.02Q153.88 20.97 152.81 21.48Q151.75 22 150.36 22L150.36 22ZM148.77 15.50L148.77 20.10L150.27 20.10Q151.35 20.10 152.00 19.49Q152.65 18.88 152.65 17.80L152.65 17.80Q152.65 16.72 152.00 16.11Q151.35 15.50 150.27 15.50L150.27 15.50L148.77 15.50ZM166.53 22L159.79 22L159.79 13.60L166.38 13.60L166.38 15.44L162.14 15.44L162.14 16.85L165.87 16.85L165.87 18.63L162.14 18.63L162.14 20.17L166.53 20.17L166.53 22ZM173.92 22L170.33 13.60L172.90 13.60L175.18 19.07L177.50 13.60L179.85 13.60L176.26 22L173.92 22ZM190.75 22L184.01 22L184.01 13.60L190.60 13.60L190.60 15.44L186.36 15.44L186.36 16.85L190.10 16.85L190.10 18.63L186.36 18.63L186.36 20.17L190.75 20.17L190.75 22ZM201.94 22L195.56 22L195.56 13.60L197.94 13.60L197.94 20.11L201.94 20.11L201.94 22ZM205.93 17.80L205.93 17.80Q205.93 16.55 206.54 15.55Q207.14 14.56 208.20 14.00Q209.27 13.43 210.60 13.43L210.60 13.43Q211.93 13.43 212.99 14.00Q214.05 14.56 214.66 15.55Q215.27 16.55 215.27 17.80L215.27 17.80Q215.27 19.05 214.66 20.04Q214.05 21.04 212.99 21.60Q211.93 22.17 210.60 22.17L210.60 22.17Q209.27 22.17 208.20 21.60Q207.14 21.04 206.54 20.04Q205.93 19.05 205.93 17.80ZM208.33 17.80L208.33 17.80Q208.33 18.51 208.63 19.05Q208.93 19.60 209.45 19.90Q209.97 20.20 210.60 20.20L210.60 20.20Q211.24 20.20 211.75 19.90Q212.27 19.60 212.57 19.05Q212.87 18.51 212.87 17.80L212.87 17.80Q212.87 17.09 212.57 16.54Q212.27 16 211.75 15.70Q211.24 15.40 210.60 15.40L210.60 15.40Q209.96 15.40 209.45 15.70Q208.93 16 208.63 16.54Q208.33 17.09 208.33 17.80ZM222.38 22L220.00 22L220.00 13.60L223.84 13.60Q224.98 13.60 225.82 13.98Q226.66 14.35 227.12 15.06Q227.57 15.76 227.57 16.71L227.57 16.71Q227.57 17.66 227.12 18.35Q226.66 19.05 225.82 19.42Q224.98 19.80 223.84 19.80L223.84 19.80L222.38 19.80L222.38 22ZM222.38 15.47L222.38 17.93L223.69 17.93Q224.43 17.93 224.80 17.61Q225.17 17.29 225.17 16.71L225.17 16.71Q225.17 16.12 224.80 15.80Q224.43 15.47 223.69 15.47L223.69 15.47L222.38 15.47ZM239.07 22L232.32 22L232.32 13.60L238.92 13.60L238.92 15.44L234.68 15.44L234.68 16.85L238.41 16.85L238.41 18.63L234.68 18.63L234.68 20.17L239.07 20.17L239.07 22ZM246.25 22L243.87 22L243.87 13.60L247.72 13.60Q248.86 13.60 249.70 13.98Q250.54 14.35 250.99 15.06Q251.45 15.76 251.45 16.71L251.45 16.71Q251.45 17.62 251.02 18.30Q250.59 18.98 249.80 19.36L249.80 19.36L251.61 22L249.07 22L247.55 19.77L246.25 19.77L246.25 22ZM246.25 15.47L246.25 17.93L247.57 17.93Q248.30 17.93 248.68 17.61Q249.05 17.29 249.05 16.71L249.05 16.71Q249.05 16.12 248.68 15.79Q248.30 15.47 247.57 15.47L247.57 15.47L246.25 15.47ZM255.65 21.24L255.65 21.24L256.43 19.49Q256.99 19.86 257.74 20.09Q258.48 20.32 259.20 20.32L259.20 20.32Q260.57 20.32 260.57 19.64L260.57 19.64Q260.57 19.28 260.18 19.11Q259.79 18.93 258.93 18.74L258.93 18.74Q257.98 18.53 257.34 18.30Q256.71 18.06 256.25 17.55Q255.80 17.03 255.80 16.16L255.80 16.16Q255.80 15.39 256.22 14.77Q256.63 14.15 257.47 13.79Q258.30 13.43 259.51 13.43L259.51 13.43Q260.34 13.43 261.14 13.62Q261.95 13.80 262.56 14.17L262.56 14.17L261.83 15.93Q260.63 15.28 259.50 15.28L259.50 15.28Q258.79 15.28 258.47 15.49Q258.15 15.70 258.15 16.04L258.15 16.04Q258.15 16.37 258.53 16.54Q258.91 16.71 259.76 16.89L259.76 16.89Q260.72 17.10 261.35 17.33Q261.98 17.56 262.45 18.07Q262.91 18.58 262.91 19.46L262.91 19.46Q262.91 20.21 262.49 20.83Q262.07 21.44 261.23 21.80Q260.39 22.17 259.19 22.17L259.19 22.17Q258.17 22.17 257.21 21.92Q256.25 21.67 255.65 21.24ZM273.26 18.72L267.35 20.91L267.35 19.16L271.17 17.80L267.35 16.45L267.35 14.69L273.26 16.88L273.26 18.72Z" fill="#FFFFFF" x="134.41"/></svg>