<svg width="498" height="607" viewBox="0 0 498 607" fill="none" xmlns="http://www.w3.org/2000/svg">
<g filter="url(#filter0_d_497_738)">
<path d="M410.953 247.469C404.477 235.596 395.572 226.556 384.238 220.349C372.904 214.142 359.682 211.039 344.57 211.039C327.839 211.039 312.997 214.817 300.044 222.373C287.092 229.929 276.972 240.723 269.686 254.755C262.4 268.787 258.757 284.978 258.757 303.328C258.757 322.218 262.4 338.679 269.686 352.711C277.242 366.743 287.631 377.537 300.854 385.093C314.077 392.649 329.458 396.427 346.999 396.427C368.587 396.427 386.262 390.76 400.024 379.426C413.787 367.823 422.827 351.766 427.144 331.258H329.998V287.947H483.003V337.329C479.226 357.029 471.13 375.244 458.717 391.974C446.304 408.705 430.248 422.198 410.548 432.452C391.119 442.436 369.261 447.429 344.975 447.429C317.72 447.429 293.028 441.357 270.901 429.214C249.043 416.801 231.772 399.665 219.089 377.807C206.676 355.949 200.469 331.123 200.469 303.328C200.469 275.534 206.676 250.707 219.089 228.849C231.772 206.722 249.043 189.586 270.901 177.443C293.028 165.03 317.585 158.823 344.57 158.823C376.412 158.823 404.072 166.649 427.549 182.3C451.026 197.682 467.217 219.405 476.122 247.469H410.953Z" fill="#ED413E" fill-opacity="0.68" shape-rendering="crispEdges"/>
</g>
<g filter="url(#filter1_d_497_738)">
<path d="M228.651 247.469C222.175 235.596 213.269 226.556 201.936 220.349C190.602 214.142 177.379 211.039 162.268 211.039C145.537 211.039 130.695 214.817 117.742 222.373C104.789 229.929 94.67 240.723 87.384 254.755C80.098 268.787 76.455 284.978 76.455 303.328C76.455 322.218 80.098 338.679 87.384 352.711C94.9398 366.743 105.329 377.537 118.552 385.093C131.774 392.649 147.156 396.427 164.696 396.427C186.284 396.427 203.96 390.76 217.722 379.426C231.484 367.823 240.524 351.766 244.842 331.258H147.696V287.947H300.701V337.329C296.923 357.029 288.828 375.244 276.415 391.974C264.001 408.705 247.945 422.198 228.246 432.452C208.817 442.436 186.959 447.429 162.672 447.429C135.417 447.429 110.726 441.357 88.5983 429.214C66.7404 416.801 49.4699 399.665 36.7869 377.807C24.3738 355.949 18.1672 331.123 18.1672 303.328C18.1672 275.534 24.3738 250.707 36.7869 228.849C49.4699 206.722 66.7404 189.586 88.5983 177.443C110.726 165.03 135.283 158.823 162.268 158.823C194.11 158.823 221.77 166.649 245.247 182.3C268.724 197.682 284.915 219.405 293.82 247.469H228.651Z" fill="#ED413E"/>
</g>
<g filter="url(#filter2_d_497_738)">
<path d="M139.432 495.22C138.64 493.695 137.54 492.551 136.132 491.788C134.724 490.996 133.096 490.6 131.248 490.6C129.224 490.6 127.42 491.055 125.836 491.964C124.252 492.873 123.005 494.164 122.096 495.836C121.216 497.508 120.776 499.444 120.776 501.644C120.776 503.844 121.216 505.795 122.096 507.496C123.005 509.168 124.252 510.459 125.836 511.368C127.42 512.277 129.224 512.732 131.248 512.732C133.976 512.732 136.191 511.969 137.892 510.444C139.593 508.919 140.635 506.851 141.016 504.24H129.532V500.236H146.384V504.152C146.061 506.528 145.211 508.713 143.832 510.708C142.483 512.703 140.708 514.301 138.508 515.504C136.337 516.677 133.917 517.264 131.248 517.264C128.373 517.264 125.748 516.604 123.372 515.284C120.996 513.935 119.104 512.072 117.696 509.696C116.317 507.32 115.628 504.636 115.628 501.644C115.628 498.652 116.317 495.968 117.696 493.592C119.104 491.216 120.996 489.368 123.372 488.048C125.777 486.699 128.403 486.024 131.248 486.024C134.504 486.024 137.393 486.831 139.916 488.444C142.468 490.028 144.316 492.287 145.46 495.22H139.432ZM153.883 489.544C152.974 489.544 152.211 489.236 151.595 488.62C150.979 488.004 150.671 487.241 150.671 486.332C150.671 485.423 150.979 484.66 151.595 484.044C152.211 483.428 152.974 483.12 153.883 483.12C154.763 483.12 155.511 483.428 156.127 484.044C156.743 484.66 157.051 485.423 157.051 486.332C157.051 487.241 156.743 488.004 156.127 488.62C155.511 489.236 154.763 489.544 153.883 489.544ZM156.347 492.756V517H151.331V492.756H156.347ZM172.305 512.512L179.169 492.756H184.493L175.253 517H169.269L160.073 492.756H165.441L172.305 512.512ZM210.504 504.284C210.504 505.193 210.446 506.015 210.328 506.748H191.804C191.951 508.684 192.67 510.239 193.96 511.412C195.251 512.585 196.835 513.172 198.712 513.172C201.411 513.172 203.318 512.043 204.432 509.784H209.844C209.111 512.013 207.776 513.847 205.84 515.284C203.934 516.692 201.558 517.396 198.712 517.396C196.395 517.396 194.312 516.883 192.464 515.856C190.646 514.8 189.208 513.333 188.152 511.456C187.126 509.549 186.612 507.349 186.612 504.856C186.612 502.363 187.111 500.177 188.108 498.3C189.135 496.393 190.558 494.927 192.376 493.9C194.224 492.873 196.336 492.36 198.712 492.36C201 492.36 203.039 492.859 204.828 493.856C206.618 494.853 208.011 496.261 209.008 498.08C210.006 499.869 210.504 501.937 210.504 504.284ZM205.268 502.7C205.239 500.852 204.579 499.371 203.288 498.256C201.998 497.141 200.399 496.584 198.492 496.584C196.762 496.584 195.28 497.141 194.048 498.256C192.816 499.341 192.083 500.823 191.848 502.7H205.268ZM307.623 492.36C309.5 492.36 311.157 492.741 312.595 493.504C314.061 494.237 315.205 495.161 316.027 496.276V492.756H321.087V517.396C321.087 519.625 320.617 521.605 319.679 523.336C318.74 525.096 317.376 526.475 315.587 527.472C313.827 528.469 311.715 528.968 309.251 528.968C305.965 528.968 303.237 528.191 301.067 526.636C298.896 525.111 297.664 523.028 297.371 520.388H302.343C302.724 521.649 303.531 522.661 304.763 523.424C306.024 524.216 307.52 524.612 309.251 524.612C311.275 524.612 312.903 523.996 314.135 522.764C315.396 521.532 316.027 519.743 316.027 517.396V513.348C315.176 514.492 314.017 515.46 312.551 516.252C311.113 517.015 309.471 517.396 307.623 517.396C305.511 517.396 303.575 516.868 301.815 515.812C300.084 514.727 298.705 513.231 297.679 511.324C296.681 509.388 296.183 507.203 296.183 504.768C296.183 502.333 296.681 500.177 297.679 498.3C298.705 496.423 300.084 494.971 301.815 493.944C303.575 492.888 305.511 492.36 307.623 492.36ZM316.027 504.856C316.027 503.184 315.675 501.732 314.971 500.5C314.296 499.268 313.401 498.329 312.287 497.684C311.172 497.039 309.969 496.716 308.679 496.716C307.388 496.716 306.185 497.039 305.071 497.684C303.956 498.3 303.047 499.224 302.343 500.456C301.668 501.659 301.331 503.096 301.331 504.768C301.331 506.44 301.668 507.907 302.343 509.168C303.047 510.429 303.956 511.397 305.071 512.072C306.215 512.717 307.417 513.04 308.679 513.04C309.969 513.04 311.172 512.717 312.287 512.072C313.401 511.427 314.296 510.488 314.971 509.256C315.675 507.995 316.027 506.528 316.027 504.856ZM338.191 517.396C335.903 517.396 333.835 516.883 331.987 515.856C330.139 514.8 328.687 513.333 327.631 511.456C326.575 509.549 326.047 507.349 326.047 504.856C326.047 502.392 326.59 500.207 327.675 498.3C328.76 496.393 330.242 494.927 332.119 493.9C333.996 492.873 336.094 492.36 338.411 492.36C340.728 492.36 342.826 492.873 344.703 493.9C346.58 494.927 348.062 496.393 349.147 498.3C350.232 500.207 350.775 502.392 350.775 504.856C350.775 507.32 350.218 509.505 349.103 511.412C347.988 513.319 346.463 514.8 344.527 515.856C342.62 516.883 340.508 517.396 338.191 517.396ZM338.191 513.04C339.482 513.04 340.684 512.732 341.799 512.116C342.943 511.5 343.867 510.576 344.571 509.344C345.275 508.112 345.627 506.616 345.627 504.856C345.627 503.096 345.29 501.615 344.615 500.412C343.94 499.18 343.046 498.256 341.931 497.64C340.816 497.024 339.614 496.716 338.323 496.716C337.032 496.716 335.83 497.024 334.715 497.64C333.63 498.256 332.764 499.18 332.119 500.412C331.474 501.615 331.151 503.096 331.151 504.856C331.151 507.467 331.811 509.491 333.131 510.928C334.48 512.336 336.167 513.04 338.191 513.04ZM366.25 517.396C363.962 517.396 361.894 516.883 360.046 515.856C358.198 514.8 356.746 513.333 355.69 511.456C354.634 509.549 354.106 507.349 354.106 504.856C354.106 502.392 354.648 500.207 355.734 498.3C356.819 496.393 358.3 494.927 360.178 493.9C362.055 492.873 364.152 492.36 366.47 492.36C368.787 492.36 370.884 492.873 372.762 493.9C374.639 494.927 376.12 496.393 377.206 498.3C378.291 500.207 378.834 502.392 378.834 504.856C378.834 507.32 378.276 509.505 377.162 511.412C376.047 513.319 374.522 514.8 372.586 515.856C370.679 516.883 368.567 517.396 366.25 517.396ZM366.25 513.04C367.54 513.04 368.743 512.732 369.858 512.116C371.002 511.5 371.926 510.576 372.63 509.344C373.334 508.112 373.686 506.616 373.686 504.856C373.686 503.096 373.348 501.615 372.674 500.412C371.999 499.18 371.104 498.256 369.99 497.64C368.875 497.024 367.672 496.716 366.382 496.716C365.091 496.716 363.888 497.024 362.774 497.64C361.688 498.256 360.823 499.18 360.178 500.412C359.532 501.615 359.21 503.096 359.21 504.856C359.21 507.467 359.87 509.491 361.19 510.928C362.539 512.336 364.226 513.04 366.25 513.04ZM382.12 504.768C382.12 502.333 382.619 500.177 383.616 498.3C384.643 496.423 386.022 494.971 387.752 493.944C389.512 492.888 391.463 492.36 393.604 492.36C395.188 492.36 396.743 492.712 398.268 493.416C399.823 494.091 401.055 495 401.964 496.144V484.44H407.024V517H401.964V513.348C401.143 514.521 399.999 515.489 398.532 516.252C397.095 517.015 395.438 517.396 393.56 517.396C391.448 517.396 389.512 516.868 387.752 515.812C386.022 514.727 384.643 513.231 383.616 511.324C382.619 509.388 382.12 507.203 382.12 504.768ZM401.964 504.856C401.964 503.184 401.612 501.732 400.908 500.5C400.234 499.268 399.339 498.329 398.224 497.684C397.11 497.039 395.907 496.716 394.616 496.716C393.326 496.716 392.123 497.039 391.008 497.684C389.894 498.3 388.984 499.224 388.28 500.456C387.606 501.659 387.268 503.096 387.268 504.768C387.268 506.44 387.606 507.907 388.28 509.168C388.984 510.429 389.894 511.397 391.008 512.072C392.152 512.717 393.355 513.04 394.616 513.04C395.907 513.04 397.11 512.717 398.224 512.072C399.339 511.427 400.234 510.488 400.908 509.256C401.612 507.995 401.964 506.528 401.964 504.856Z" fill="black"/>
<path d="M237.034 496.848H232.546V517H227.486V496.848H224.626V492.756H227.486V491.04C227.486 488.253 228.22 486.229 229.686 484.968C231.182 483.677 233.514 483.032 236.682 483.032V487.212C235.157 487.212 234.086 487.505 233.47 488.092C232.854 488.649 232.546 489.632 232.546 491.04V492.756H237.034V496.848ZM251.996 517.396C249.708 517.396 247.64 516.883 245.792 515.856C243.944 514.8 242.492 513.333 241.436 511.456C240.38 509.549 239.852 507.349 239.852 504.856C239.852 502.392 240.394 500.207 241.48 498.3C242.565 496.393 244.046 494.927 245.924 493.9C247.801 492.873 249.898 492.36 252.216 492.36C254.533 492.36 256.63 492.873 258.508 493.9C260.385 494.927 261.866 496.393 262.952 498.3C264.037 500.207 264.58 502.392 264.58 504.856C264.58 507.32 264.022 509.505 262.908 511.412C261.793 513.319 260.268 514.8 258.332 515.856C256.425 516.883 254.313 517.396 251.996 517.396ZM251.996 513.04C253.286 513.04 254.489 512.732 255.604 512.116C256.748 511.5 257.672 510.576 258.376 509.344C259.08 508.112 259.432 506.616 259.432 504.856C259.432 503.096 259.094 501.615 258.42 500.412C257.745 499.18 256.85 498.256 255.736 497.64C254.621 497.024 253.418 496.716 252.128 496.716C250.837 496.716 249.634 497.024 248.52 497.64C247.434 498.256 246.569 499.18 245.924 500.412C245.278 501.615 244.956 503.096 244.956 504.856C244.956 507.467 245.616 509.491 246.936 510.928C248.285 512.336 249.972 513.04 251.996 513.04ZM274.554 496.276C275.288 495.044 276.256 494.091 277.458 493.416C278.69 492.712 280.142 492.36 281.814 492.36V497.552H280.538C278.573 497.552 277.077 498.051 276.05 499.048C275.053 500.045 274.554 501.776 274.554 504.24V517H269.538V492.756H274.554V496.276Z" fill="#ED413E"/>
</g>
<defs>
<filter id="filter0_d_497_738" x="192.628" y="152.942" width="302.137" height="308.208" filterUnits="userSpaceOnUse" color-interpolation-filters="sRGB">
<feFlood flood-opacity="0" result="BackgroundImageFix"/>
<feColorMatrix in="SourceAlpha" type="matrix" values="0 0 0 0 0 0 0 0 0 0 0 0 0 0 0 0 0 0 127 0" result="hardAlpha"/>
<feOffset dx="1.96024" dy="3.92048"/>
<feGaussianBlur stdDeviation="4.9006"/>
<feComposite in2="hardAlpha" operator="out"/>
<feColorMatrix type="matrix" values="0 0 0 0 0 0 0 0 0 0 0 0 0 0 0 0 0 0 0.4 0"/>
<feBlend mode="normal" in2="BackgroundImageFix" result="effect1_dropShadow_497_738"/>
<feBlend mode="normal" in="SourceGraphic" in2="effect1_dropShadow_497_738" result="shape"/>
</filter>
<filter id="filter1_d_497_738" x="0.524844" y="143.141" width="321.739" height="327.81" filterUnits="userSpaceOnUse" color-interpolation-filters="sRGB">
<feFlood flood-opacity="0" result="BackgroundImageFix"/>
<feColorMatrix in="SourceAlpha" type="matrix" values="0 0 0 0 0 0 0 0 0 0 0 0 0 0 0 0 0 0 127 0" result="hardAlpha"/>
<feOffset dx="1.96024" dy="3.92048"/>
<feGaussianBlur stdDeviation="9.80119"/>
<feComposite in2="hardAlpha" operator="out"/>
<feColorMatrix type="matrix" values="0 0 0 0 0 0 0 0 0 0 0 0 0 0 0 0 0 0 0.4 0"/>
<feBlend mode="normal" in2="BackgroundImageFix" result="effect1_dropShadow_497_738"/>
<feBlend mode="normal" in="SourceGraphic" in2="effect1_dropShadow_497_738" result="shape"/>
</filter>
<filter id="filter2_d_497_738" x="105.628" y="473.032" width="311.396" height="65.936" filterUnits="userSpaceOnUse" color-interpolation-filters="sRGB">
<feFlood flood-opacity="0" result="BackgroundImageFix"/>
<feColorMatrix in="SourceAlpha" type="matrix" values="0 0 0 0 0 0 0 0 0 0 0 0 0 0 0 0 0 0 127 0" result="hardAlpha"/>
<feOffset/>
<feGaussianBlur stdDeviation="5"/>
<feComposite in2="hardAlpha" operator="out"/>
<feColorMatrix type="matrix" values="0 0 0 0 0 0 0 0 0 0 0 0 0 0 0 0 0 0 0.2 0"/>
<feBlend mode="normal" in2="BackgroundImageFix" result="effect1_dropShadow_497_738"/>
<feBlend mode="normal" in="SourceGraphic" in2="effect1_dropShadow_497_738" result="shape"/>
</filter>
</defs>
</svg>
