<svg width="428" height="556" viewBox="0 0 428 556" fill="none" xmlns="http://www.w3.org/2000/svg">
<g filter="url(#filter0_d_226_418)">
<path d="M379.798 224.469C373.322 212.596 364.416 203.556 353.083 197.349C341.749 191.142 328.526 188.039 313.415 188.039C296.684 188.039 281.842 191.817 268.889 199.373C255.936 206.929 245.817 217.723 238.531 231.755C231.245 245.787 227.602 261.978 227.602 280.328C227.602 299.218 231.245 315.679 238.531 329.711C246.087 343.743 256.476 354.537 269.699 362.093C282.921 369.649 298.303 373.427 315.843 373.427C337.431 373.427 355.107 367.76 368.869 356.426C382.631 344.823 391.671 328.766 395.989 308.258H298.843V264.947H451.848V314.329C448.07 334.029 439.975 352.244 427.562 368.974C415.148 385.705 399.092 399.198 379.393 409.452C359.964 419.436 338.106 424.429 313.819 424.429C286.564 424.429 261.873 418.357 239.745 406.214C217.887 393.801 200.617 376.665 187.934 354.807C175.521 332.949 169.314 308.123 169.314 280.328C169.314 252.534 175.521 227.707 187.934 205.849C200.617 183.722 217.887 166.586 239.745 154.443C261.873 142.03 286.43 135.823 313.415 135.823C345.257 135.823 372.917 143.649 396.394 159.3C419.871 174.682 436.062 196.405 444.967 224.469H379.798Z" fill="#ED413E" fill-opacity="0.68" shape-rendering="crispEdges"/>
</g>
<g filter="url(#filter1_d_226_418)">
<path d="M194.651 224.469C188.175 212.596 179.269 203.556 167.936 197.349C156.602 191.142 143.379 188.039 128.268 188.039C111.537 188.039 96.6951 191.817 83.7422 199.373C70.7894 206.929 60.67 217.723 53.384 231.755C46.098 245.787 42.455 261.978 42.455 280.328C42.455 299.218 46.098 315.679 53.384 329.711C60.9398 343.743 71.3291 354.537 84.5518 362.093C97.7745 369.649 113.156 373.427 130.696 373.427C152.284 373.427 169.96 367.76 183.722 356.426C197.484 344.823 206.524 328.766 210.842 308.258H113.696V264.947H266.701V314.329C262.923 334.029 254.828 352.244 242.415 368.974C230.001 385.705 213.945 399.198 194.246 409.452C174.817 419.436 152.959 424.429 128.672 424.429C101.417 424.429 76.7261 418.357 54.5983 406.214C32.7404 393.801 15.4699 376.665 2.7869 354.807C-9.62625 332.949 -15.8328 308.123 -15.8328 280.328C-15.8328 252.534 -9.62625 227.707 2.7869 205.849C15.4699 183.722 32.7404 166.586 54.5983 154.443C76.7261 142.03 101.283 135.823 128.268 135.823C160.11 135.823 187.77 143.649 211.247 159.3C234.724 174.682 250.915 196.405 259.82 224.469H194.651Z" fill="#ED413E"/>
</g>
<g filter="url(#filter2_d_226_418)">
<path d="M93.432 471.22C92.64 469.695 91.54 468.551 90.132 467.788C88.724 466.996 87.096 466.6 85.248 466.6C83.224 466.6 81.42 467.055 79.836 467.964C78.252 468.873 77.0053 470.164 76.096 471.836C75.216 473.508 74.776 475.444 74.776 477.644C74.776 479.844 75.216 481.795 76.096 483.496C77.0053 485.168 78.252 486.459 79.836 487.368C81.42 488.277 83.224 488.732 85.248 488.732C87.976 488.732 90.1907 487.969 91.892 486.444C93.5933 484.919 94.6347 482.851 95.016 480.24H83.532V476.236H100.384V480.152C100.061 482.528 99.2107 484.713 97.832 486.708C96.4827 488.703 94.708 490.301 92.508 491.504C90.3373 492.677 87.9173 493.264 85.248 493.264C82.3733 493.264 79.748 492.604 77.372 491.284C74.996 489.935 73.104 488.072 71.696 485.696C70.3173 483.32 69.628 480.636 69.628 477.644C69.628 474.652 70.3173 471.968 71.696 469.592C73.104 467.216 74.996 465.368 77.372 464.048C79.7773 462.699 82.4027 462.024 85.248 462.024C88.504 462.024 91.3933 462.831 93.916 464.444C96.468 466.028 98.316 468.287 99.46 471.22H93.432ZM107.883 465.544C106.974 465.544 106.211 465.236 105.595 464.62C104.979 464.004 104.671 463.241 104.671 462.332C104.671 461.423 104.979 460.66 105.595 460.044C106.211 459.428 106.974 459.12 107.883 459.12C108.763 459.12 109.511 459.428 110.127 460.044C110.743 460.66 111.051 461.423 111.051 462.332C111.051 463.241 110.743 464.004 110.127 464.62C109.511 465.236 108.763 465.544 107.883 465.544ZM110.347 468.756V493H105.331V468.756H110.347ZM126.305 488.512L133.169 468.756H138.493L129.253 493H123.269L114.073 468.756H119.441L126.305 488.512ZM164.504 480.284C164.504 481.193 164.446 482.015 164.328 482.748H145.804C145.951 484.684 146.67 486.239 147.96 487.412C149.251 488.585 150.835 489.172 152.712 489.172C155.411 489.172 157.318 488.043 158.432 485.784H163.844C163.111 488.013 161.776 489.847 159.84 491.284C157.934 492.692 155.558 493.396 152.712 493.396C150.395 493.396 148.312 492.883 146.464 491.856C144.646 490.8 143.208 489.333 142.152 487.456C141.126 485.549 140.612 483.349 140.612 480.856C140.612 478.363 141.111 476.177 142.108 474.3C143.135 472.393 144.558 470.927 146.376 469.9C148.224 468.873 150.336 468.36 152.712 468.36C155 468.36 157.039 468.859 158.828 469.856C160.618 470.853 162.011 472.261 163.008 474.08C164.006 475.869 164.504 477.937 164.504 480.284ZM159.268 478.7C159.239 476.852 158.579 475.371 157.288 474.256C155.998 473.141 154.399 472.584 152.492 472.584C150.762 472.584 149.28 473.141 148.048 474.256C146.816 475.341 146.083 476.823 145.848 478.7H159.268ZM273.987 471.22C273.195 469.695 272.095 468.551 270.687 467.788C269.279 466.996 267.651 466.6 265.803 466.6C263.779 466.6 261.975 467.055 260.391 467.964C258.807 468.873 257.56 470.164 256.651 471.836C255.771 473.508 255.331 475.444 255.331 477.644C255.331 479.844 255.771 481.795 256.651 483.496C257.56 485.168 258.807 486.459 260.391 487.368C261.975 488.277 263.779 488.732 265.803 488.732C268.531 488.732 270.745 487.969 272.447 486.444C274.148 484.919 275.189 482.851 275.571 480.24H264.087V476.236H280.939V480.152C280.616 482.528 279.765 484.713 278.387 486.708C277.037 488.703 275.263 490.301 273.063 491.504C270.892 492.677 268.472 493.264 265.803 493.264C262.928 493.264 260.303 492.604 257.927 491.284C255.551 489.935 253.659 488.072 252.251 485.696C250.872 483.32 250.183 480.636 250.183 477.644C250.183 474.652 250.872 471.968 252.251 469.592C253.659 467.216 255.551 465.368 257.927 464.048C260.332 462.699 262.957 462.024 265.803 462.024C269.059 462.024 271.948 462.831 274.471 464.444C277.023 466.028 278.871 468.287 280.015 471.22H273.987ZM296.402 493.396C294.114 493.396 292.046 492.883 290.198 491.856C288.35 490.8 286.898 489.333 285.842 487.456C284.786 485.549 284.258 483.349 284.258 480.856C284.258 478.392 284.801 476.207 285.886 474.3C286.971 472.393 288.453 470.927 290.33 469.9C292.207 468.873 294.305 468.36 296.622 468.36C298.939 468.36 301.037 468.873 302.914 469.9C304.791 470.927 306.273 472.393 307.358 474.3C308.443 476.207 308.986 478.392 308.986 480.856C308.986 483.32 308.429 485.505 307.314 487.412C306.199 489.319 304.674 490.8 302.738 491.856C300.831 492.883 298.719 493.396 296.402 493.396ZM296.402 489.04C297.693 489.04 298.895 488.732 300.01 488.116C301.154 487.5 302.078 486.576 302.782 485.344C303.486 484.112 303.838 482.616 303.838 480.856C303.838 479.096 303.501 477.615 302.826 476.412C302.151 475.18 301.257 474.256 300.142 473.64C299.027 473.024 297.825 472.716 296.534 472.716C295.243 472.716 294.041 473.024 292.926 473.64C291.841 474.256 290.975 475.18 290.33 476.412C289.685 477.615 289.362 479.096 289.362 480.856C289.362 483.467 290.022 485.491 291.342 486.928C292.691 488.336 294.378 489.04 296.402 489.04ZM324.461 493.396C322.173 493.396 320.105 492.883 318.257 491.856C316.409 490.8 314.957 489.333 313.901 487.456C312.845 485.549 312.317 483.349 312.317 480.856C312.317 478.392 312.859 476.207 313.945 474.3C315.03 472.393 316.511 470.927 318.389 469.9C320.266 468.873 322.363 468.36 324.681 468.36C326.998 468.36 329.095 468.873 330.973 469.9C332.85 470.927 334.331 472.393 335.417 474.3C336.502 476.207 337.045 478.392 337.045 480.856C337.045 483.32 336.487 485.505 335.373 487.412C334.258 489.319 332.733 490.8 330.797 491.856C328.89 492.883 326.778 493.396 324.461 493.396ZM324.461 489.04C325.751 489.04 326.954 488.732 328.069 488.116C329.213 487.5 330.137 486.576 330.841 485.344C331.545 484.112 331.897 482.616 331.897 480.856C331.897 479.096 331.559 477.615 330.885 476.412C330.21 475.18 329.315 474.256 328.201 473.64C327.086 473.024 325.883 472.716 324.593 472.716C323.302 472.716 322.099 473.024 320.985 473.64C319.899 474.256 319.034 475.18 318.389 476.412C317.743 477.615 317.421 479.096 317.421 480.856C317.421 483.467 318.081 485.491 319.401 486.928C320.75 488.336 322.437 489.04 324.461 489.04ZM340.331 480.768C340.331 478.333 340.83 476.177 341.827 474.3C342.854 472.423 344.232 470.971 345.963 469.944C347.723 468.888 349.674 468.36 351.815 468.36C353.399 468.36 354.954 468.712 356.479 469.416C358.034 470.091 359.266 471 360.175 472.144V460.44H365.235V493H360.175V489.348C359.354 490.521 358.21 491.489 356.743 492.252C355.306 493.015 353.648 493.396 351.771 493.396C349.659 493.396 347.723 492.868 345.963 491.812C344.232 490.727 342.854 489.231 341.827 487.324C340.83 485.388 340.331 483.203 340.331 480.768ZM360.175 480.856C360.175 479.184 359.823 477.732 359.119 476.5C358.444 475.268 357.55 474.329 356.435 473.684C355.32 473.039 354.118 472.716 352.827 472.716C351.536 472.716 350.334 473.039 349.219 473.684C348.104 474.3 347.195 475.224 346.491 476.456C345.816 477.659 345.479 479.096 345.479 480.768C345.479 482.44 345.816 483.907 346.491 485.168C347.195 486.429 348.104 487.397 349.219 488.072C350.363 488.717 351.566 489.04 352.827 489.04C354.118 489.04 355.32 488.717 356.435 488.072C357.55 487.427 358.444 486.488 359.119 485.256C359.823 483.995 360.175 482.528 360.175 480.856Z" fill="black"/>
<path d="M191.034 472.848H186.546V493H181.486V472.848H178.626V468.756H181.486V467.04C181.486 464.253 182.22 462.229 183.686 460.968C185.182 459.677 187.514 459.032 190.682 459.032V463.212C189.157 463.212 188.086 463.505 187.47 464.092C186.854 464.649 186.546 465.632 186.546 467.04V468.756H191.034V472.848ZM205.996 493.396C203.708 493.396 201.64 492.883 199.792 491.856C197.944 490.8 196.492 489.333 195.436 487.456C194.38 485.549 193.852 483.349 193.852 480.856C193.852 478.392 194.394 476.207 195.48 474.3C196.565 472.393 198.046 470.927 199.924 469.9C201.801 468.873 203.898 468.36 206.216 468.36C208.533 468.36 210.63 468.873 212.508 469.9C214.385 470.927 215.866 472.393 216.952 474.3C218.037 476.207 218.58 478.392 218.58 480.856C218.58 483.32 218.022 485.505 216.908 487.412C215.793 489.319 214.268 490.8 212.332 491.856C210.425 492.883 208.313 493.396 205.996 493.396ZM205.996 489.04C207.286 489.04 208.489 488.732 209.604 488.116C210.748 487.5 211.672 486.576 212.376 485.344C213.08 484.112 213.432 482.616 213.432 480.856C213.432 479.096 213.094 477.615 212.42 476.412C211.745 475.18 210.85 474.256 209.736 473.64C208.621 473.024 207.418 472.716 206.128 472.716C204.837 472.716 203.634 473.024 202.52 473.64C201.434 474.256 200.569 475.18 199.924 476.412C199.278 477.615 198.956 479.096 198.956 480.856C198.956 483.467 199.616 485.491 200.936 486.928C202.285 488.336 203.972 489.04 205.996 489.04ZM228.554 472.276C229.288 471.044 230.256 470.091 231.458 469.416C232.69 468.712 234.142 468.36 235.814 468.36V473.552H234.538C232.573 473.552 231.077 474.051 230.05 475.048C229.053 476.045 228.554 477.776 228.554 480.24V493H223.538V468.756H228.554V472.276Z" fill="#ED413E"/>
</g>
<defs>
<filter id="filter0_d_226_418" x="161.473" y="129.942" width="302.136" height="308.208" filterUnits="userSpaceOnUse" color-interpolation-filters="sRGB">
<feFlood flood-opacity="0" result="BackgroundImageFix"/>
<feColorMatrix in="SourceAlpha" type="matrix" values="0 0 0 0 0 0 0 0 0 0 0 0 0 0 0 0 0 0 127 0" result="hardAlpha"/>
<feOffset dx="1.96024" dy="3.92048"/>
<feGaussianBlur stdDeviation="4.9006"/>
<feComposite in2="hardAlpha" operator="out"/>
<feColorMatrix type="matrix" values="0 0 0 0 0 0 0 0 0 0 0 0 0 0 0 0 0 0 0.4 0"/>
<feBlend mode="normal" in2="BackgroundImageFix" result="effect1_dropShadow_226_418"/>
<feBlend mode="normal" in="SourceGraphic" in2="effect1_dropShadow_226_418" result="shape"/>
</filter>
<filter id="filter1_d_226_418" x="-33.475" y="120.141" width="321.739" height="327.81" filterUnits="userSpaceOnUse" color-interpolation-filters="sRGB">
<feFlood flood-opacity="0" result="BackgroundImageFix"/>
<feColorMatrix in="SourceAlpha" type="matrix" values="0 0 0 0 0 0 0 0 0 0 0 0 0 0 0 0 0 0 127 0" result="hardAlpha"/>
<feOffset dx="1.96024" dy="3.92048"/>
<feGaussianBlur stdDeviation="9.80119"/>
<feComposite in2="hardAlpha" operator="out"/>
<feColorMatrix type="matrix" values="0 0 0 0 0 0 0 0 0 0 0 0 0 0 0 0 0 0 0.4 0"/>
<feBlend mode="normal" in2="BackgroundImageFix" result="effect1_dropShadow_226_418"/>
<feBlend mode="normal" in="SourceGraphic" in2="effect1_dropShadow_226_418" result="shape"/>
</filter>
<filter id="filter2_d_226_418" x="59.628" y="449.032" width="315.607" height="54.364" filterUnits="userSpaceOnUse" color-interpolation-filters="sRGB">
<feFlood flood-opacity="0" result="BackgroundImageFix"/>
<feColorMatrix in="SourceAlpha" type="matrix" values="0 0 0 0 0 0 0 0 0 0 0 0 0 0 0 0 0 0 127 0" result="hardAlpha"/>
<feOffset/>
<feGaussianBlur stdDeviation="5"/>
<feComposite in2="hardAlpha" operator="out"/>
<feColorMatrix type="matrix" values="0 0 0 0 0 0 0 0 0 0 0 0 0 0 0 0 0 0 0.2 0"/>
<feBlend mode="normal" in2="BackgroundImageFix" result="effect1_dropShadow_226_418"/>
<feBlend mode="normal" in="SourceGraphic" in2="effect1_dropShadow_226_418" result="shape"/>
</filter>
</defs>
</svg>
