<svg width="35" height="35" viewBox="0 0 35 35" fill="none" xmlns="http://www.w3.org/2000/svg">
<path d="M17.5 17.5C15.8958 17.5 14.5226 16.9288 13.3802 15.7864C12.2378 14.6441 11.6667 13.2708 11.6667 11.6666C11.6667 10.0625 12.2378 8.68922 13.3802 7.54685C14.5226 6.40449 15.8958 5.83331 17.5 5.83331C19.1042 5.83331 20.4774 6.40449 21.6198 7.54685C22.7622 8.68922 23.3333 10.0625 23.3333 11.6666C23.3333 13.2708 22.7622 14.6441 21.6198 15.7864C20.4774 16.9288 19.1042 17.5 17.5 17.5ZM8.75 29.1666C7.94792 29.1666 7.26104 28.8808 6.68937 28.3091C6.11771 27.7375 5.83236 27.0511 5.83333 26.25V25.0833C5.83333 24.2569 6.04625 23.4971 6.47208 22.8039C6.89792 22.1107 7.46278 21.5823 8.16667 21.2187C9.67361 20.4653 11.2049 19.8999 12.7604 19.5227C14.316 19.1455 15.8958 18.9573 17.5 18.9583C19.1042 18.9583 20.684 19.1469 22.2396 19.5241C23.7951 19.9014 25.3264 20.4662 26.8333 21.2187C27.5382 21.5833 28.1035 22.1122 28.5294 22.8054C28.9552 23.4986 29.1676 24.2579 29.1667 25.0833V26.25C29.1667 27.0521 28.8808 27.7389 28.3092 28.3106C27.7375 28.8823 27.0511 29.1676 26.25 29.1666H8.75Z" fill="black"/>
</svg>
