<svg width="38" height="38" viewBox="0 0 38 38" fill="none" xmlns="http://www.w3.org/2000/svg">
<circle cx="19" cy="19" r="17.675" fill="#ED413E" stroke="white" stroke-width="2.65"/>
<path d="M19.1579 25.1667C18.9156 25.1667 18.7123 25.0867 18.5481 24.9267C18.3839 24.7667 18.3021 24.5689 18.3026 24.3333V20.1667H14.0263C13.784 20.1667 13.5807 20.0867 13.4165 19.9267C13.2523 19.7667 13.1705 19.5689 13.1711 19.3333C13.1711 19.0972 13.2532 18.8992 13.4174 18.7392C13.5816 18.5792 13.7846 18.4994 14.0263 18.5H18.3026V14.3333C18.3026 14.0972 18.3847 13.8992 18.5489 13.7392C18.7132 13.5792 18.9161 13.4994 19.1579 13.5C19.4002 13.5 19.6035 13.58 19.7677 13.74C19.9319 13.9 20.0137 14.0978 20.0132 14.3333V18.5H24.2895C24.5318 18.5 24.7351 18.58 24.8993 18.74C25.0635 18.9 25.1453 19.0978 25.1447 19.3333C25.1447 19.5694 25.0626 19.7675 24.8984 19.9275C24.7342 20.0875 24.5312 20.1672 24.2895 20.1667H20.0132V24.3333C20.0132 24.5694 19.9311 24.7675 19.7668 24.9275C19.6026 25.0875 19.3997 25.1672 19.1579 25.1667Z" fill="white"/>
</svg>
