<svg width="35" height="35" viewBox="0 0 35 35" fill="none" xmlns="http://www.w3.org/2000/svg">
<path d="M6.5625 6.5625C6.5625 5.40218 7.02344 4.28938 7.84391 3.46891C8.66438 2.64844 9.77718 2.1875 10.9375 2.1875C12.0978 2.1875 13.2106 2.64844 14.0311 3.46891C14.8516 4.28938 15.3125 5.40218 15.3125 6.5625C15.3125 7.72282 14.8516 8.83562 14.0311 9.65609C13.2106 10.4766 12.0978 10.9375 10.9375 10.9375C9.77718 10.9375 8.66438 10.4766 7.84391 9.65609C7.02344 8.83562 6.5625 7.72282 6.5625 6.5625ZM21.3916 10.0275L21.4834 10.0975C22.4116 10.7855 23.5742 11.0784 24.7175 10.9124C25.8608 10.7463 26.8921 10.1348 27.5861 9.2112C28.2802 8.28762 28.5808 7.12699 28.4223 5.98259C28.2638 4.8382 27.6591 3.80295 26.7401 3.10278C25.8212 2.4026 24.6625 2.09435 23.5171 2.24529C22.3717 2.39623 21.3325 2.9941 20.6263 3.90844C19.92 4.82278 19.6042 5.97934 19.7475 7.12573C19.8909 8.27212 20.4819 9.31526 21.3916 10.0275ZM13.7113 13.125C13.986 12.6047 14.3629 12.1452 14.8193 11.774C15.2758 11.4027 15.8024 11.1274 16.3677 10.9643C16.933 10.8013 17.5254 10.754 18.1095 10.8252C18.6935 10.8964 19.2572 11.0847 19.7668 11.3788C20.2764 11.6729 20.7214 12.0668 21.0752 12.5368C21.4291 13.0069 21.6845 13.5435 21.8262 14.1145C21.9679 14.6856 21.9929 15.2793 21.8998 15.8603C21.8067 16.4412 21.5974 16.9974 21.2844 17.4956C20.6822 18.454 19.732 19.1418 18.6334 19.4143C17.5349 19.6869 16.3734 19.5231 15.3931 18.9573C14.4127 18.3915 13.6898 17.4678 13.3762 16.3802C13.0626 15.2927 13.1827 14.1259 13.7113 13.125ZM5.46875 13.125H11.3094C10.9206 14.2353 10.8361 15.4294 11.0646 16.5834C11.293 17.7373 11.8262 18.8091 12.6087 19.6875H12.0312C10.9035 19.6873 9.80317 20.0357 8.881 20.685C7.95882 21.3342 7.25983 22.2526 6.87969 23.3144C6.14542 23.0194 5.45792 22.6193 4.83875 22.1266C3.19375 20.8031 2.1875 18.8475 2.1875 16.4062C2.1875 15.536 2.5332 14.7014 3.14856 14.0861C3.76391 13.4707 4.59851 13.125 5.46875 13.125ZM22.9688 19.6875C24.0962 19.6875 25.1962 20.0359 26.118 20.6852C27.0398 21.3345 27.7384 22.2528 28.1181 23.3144C28.8619 23.0103 29.5509 22.6144 30.1613 22.1266C31.8063 20.8031 32.8125 18.8475 32.8125 16.4062C32.8125 15.536 32.4668 14.7014 31.8514 14.0861C31.2361 13.4707 30.4015 13.125 29.5312 13.125H23.6906C23.9312 13.8097 24.0625 14.5469 24.0625 15.3125C24.0645 16.9271 23.4692 18.4854 22.3913 19.6875H22.9688ZM26.0028 23.905C26.1625 24.29 26.25 24.7144 26.25 25.1562C26.25 27.5975 25.2459 29.5531 23.5988 30.8766C21.9778 32.1781 19.8034 32.8125 17.5 32.8125C15.1966 32.8125 13.0222 32.1781 11.4012 30.8766C9.75625 29.5531 8.75 27.5975 8.75 25.1562C8.74885 24.725 8.83293 24.2978 8.99742 23.8992C9.16191 23.5006 9.40356 23.1384 9.70848 22.8335C10.0134 22.5286 10.3756 22.2869 10.7742 22.1224C11.1728 21.9579 11.6 21.8738 12.0312 21.875H22.9688C23.6187 21.8749 24.254 22.0677 24.7941 22.4291C25.3343 22.7905 25.755 23.3042 26.0028 23.905Z" fill="black"/>
</svg>
