<svg width="35" height="35" viewBox="0 0 35 35" fill="none" xmlns="http://www.w3.org/2000/svg">
<path fill-rule="evenodd" clip-rule="evenodd" d="M4.73958 17.5C4.73958 14.1157 6.08398 10.87 8.47702 8.477C10.8701 6.08396 14.1157 4.73956 17.5 4.73956C20.8843 4.73956 24.1299 6.08396 26.523 8.477C28.916 10.87 30.2604 14.1157 30.2604 17.5C30.2604 20.8843 28.916 24.1299 26.523 26.523C24.1299 28.916 20.8843 30.2604 17.5 30.2604C14.1157 30.2604 10.8701 28.916 8.47702 26.523C6.08398 24.1299 4.73958 20.8843 4.73958 17.5ZM15.8229 13.5756C14.4615 14.6953 13.5518 16.2702 13.2621 18.0089L12.304 23.7679C12.0837 25.0964 13.6296 25.9889 14.6694 25.1329L19.1771 21.4244C20.5385 20.3047 21.4482 18.7298 21.7379 16.991L22.6946 11.2321C22.9162 9.90352 21.3704 9.01102 20.3306 9.86706L15.8229 13.5756Z" fill="black"/>
<path d="M15.3125 17.5C15.3125 16.9198 15.543 16.3634 15.9532 15.9532C16.3634 15.543 16.9198 15.3125 17.5 15.3125C18.0802 15.3125 18.6366 15.543 19.0468 15.9532C19.457 16.3634 19.6875 16.9198 19.6875 17.5C19.6875 18.0802 19.457 18.6366 19.0468 19.0468C18.6366 19.457 18.0802 19.6875 17.5 19.6875C16.9198 19.6875 16.3634 19.457 15.9532 19.0468C15.543 18.6366 15.3125 18.0802 15.3125 17.5Z" fill="black"/>
</svg>
