<svg width="35" height="35" viewBox="0 0 35 35" fill="none" xmlns="http://www.w3.org/2000/svg">
<path d="M20.1192 6.03168C19.7792 5.68063 19.3722 5.40149 18.9223 5.21086C18.4723 5.02023 17.9886 4.922 17.5 4.922C17.0113 4.922 16.5277 5.02023 16.0777 5.21086C15.6278 5.40149 15.2207 5.68063 14.8808 6.03168L7.88228 13.2592C7.48124 13.6733 7.21145 14.1983 7.10645 14.7671C6.25666 19.4018 6.19404 24.1466 6.92124 28.8021L7.17791 30.45C7.25958 30.9706 7.70874 31.3542 8.2352 31.3542H13.125C13.3184 31.3542 13.5038 31.2774 13.6406 31.1406C13.7773 31.0039 13.8542 30.8184 13.8542 30.625V20.4167H21.1458V30.625C21.1458 30.8184 21.2226 31.0039 21.3594 31.1406C21.4961 31.2774 21.6816 31.3542 21.875 31.3542H26.7648C27.0197 31.3541 27.2661 31.2629 27.4597 31.0972C27.6533 30.9314 27.7813 30.7019 27.8206 30.45L28.0787 28.8021C28.8059 24.1466 28.7432 19.4018 27.8935 14.7671C27.789 14.1987 27.5185 13.6741 27.1162 13.2592L20.1192 6.03168Z" fill="black"/>
</svg>
