<svg width="35" height="35" viewBox="0 0 35 35" fill="none" xmlns="http://www.w3.org/2000/svg">
<path d="M12.7604 14.5833C12.7604 13.3263 13.2598 12.1208 14.1486 11.2319C15.0374 10.3431 16.243 9.84375 17.5 9.84375C18.757 9.84375 19.9625 10.3431 20.8514 11.2319C21.7402 12.1208 22.2396 13.3263 22.2396 14.5833C22.2396 15.8403 21.7402 17.0459 20.8514 17.9347C19.9625 18.8236 18.757 19.3229 17.5 19.3229C16.243 19.3229 15.0374 18.8236 14.1486 17.9347C13.2598 17.0459 12.7604 15.8403 12.7604 14.5833Z" fill="#ED413E" fill-opacity="0.8"/>
<path fill-rule="evenodd" clip-rule="evenodd" d="M5.50377 12.9456C5.74568 10.0138 7.08116 7.28005 9.24509 5.28712C11.409 3.2942 14.2432 2.18778 17.185 2.1875H17.815C20.7568 2.18778 23.591 3.2942 25.7549 5.28712C27.9189 7.28005 29.2543 10.0138 29.4963 12.9456C29.7665 16.2188 28.7559 19.4692 26.6773 22.0121L19.6875 30.5608C19.4226 30.8851 19.0889 31.1464 18.7106 31.3258C18.3322 31.5053 17.9187 31.5984 17.5 31.5984C17.0813 31.5984 16.6678 31.5053 16.2895 31.3258C15.9111 31.1464 15.5774 30.8851 15.3125 30.5608L8.32418 22.0121C6.24504 19.4694 5.23391 16.219 5.50377 12.9456ZM17.5 7.65625C15.6628 7.65625 13.9009 8.38607 12.6018 9.68515C11.3027 10.9842 10.5729 12.7462 10.5729 14.5833C10.5729 16.4205 11.3027 18.1824 12.6018 19.4815C13.9009 20.7806 15.6628 21.5104 17.5 21.5104C19.3372 21.5104 21.0991 20.7806 22.3982 19.4815C23.6973 18.1824 24.4271 16.4205 24.4271 14.5833C24.4271 12.7462 23.6973 10.9842 22.3982 9.68515C21.0991 8.38607 19.3372 7.65625 17.5 7.65625Z" fill="#ED413E" fill-opacity="0.8"/>
</svg>
