<svg width="36" height="37" viewBox="0 0 36 37" fill="none" xmlns="http://www.w3.org/2000/svg">
<path d="M30.9431 24.232C30.8264 24.0914 30.7118 23.9508 30.5993 23.8151C29.0524 21.944 28.1166 20.8148 28.1166 15.5182C28.1166 12.776 27.4605 10.526 26.1675 8.83849C25.2141 7.59185 23.9252 6.64614 22.2265 5.94724C22.2046 5.93508 22.1851 5.91912 22.1688 5.90013C21.5578 3.85403 19.8858 2.48364 18 2.48364C16.1142 2.48364 14.4429 3.85403 13.8319 5.89802C13.8156 5.91632 13.7963 5.93176 13.7749 5.94372C9.8107 7.57567 7.88414 10.7067 7.88414 15.5161C7.88414 20.8148 6.94969 21.944 5.40141 23.8129C5.28891 23.9486 5.1743 24.0865 5.05758 24.2299C4.75608 24.5935 4.56505 25.0359 4.50711 25.5046C4.44917 25.9734 4.52673 26.449 4.73062 26.8751C5.16445 27.7891 6.08906 28.3565 7.14445 28.3565H28.8633C29.9138 28.3565 30.832 27.7898 31.2673 26.88C31.472 26.4538 31.5503 25.9778 31.4929 25.5085C31.4354 25.0392 31.2446 24.5962 30.9431 24.232ZM18 33.9836C19.016 33.9828 20.0129 33.707 20.8849 33.1855C21.7569 32.664 22.4714 31.9162 22.9528 31.0214C22.9755 30.9785 22.9867 30.9305 22.9853 30.882C22.984 30.8335 22.9701 30.7862 22.945 30.7446C22.92 30.7031 22.8846 30.6688 22.8424 30.6449C22.8001 30.6211 22.7524 30.6086 22.7039 30.6086H13.2975C13.2489 30.6085 13.2011 30.6209 13.1588 30.6447C13.1165 30.6684 13.081 30.7028 13.0559 30.7443C13.0307 30.7859 13.0168 30.8333 13.0154 30.8818C13.014 30.9304 13.0252 30.9784 13.0479 31.0214C13.5292 31.916 14.2437 32.6638 15.1155 33.1853C15.9873 33.7068 16.9841 33.9827 18 33.9836Z" fill="black"/>
</svg>
