<svg width="35" height="35" viewBox="0 0 35 35" fill="none" xmlns="http://www.w3.org/2000/svg">
<g clip-path="url(#clip0_110_690)">
<path fill-rule="evenodd" clip-rule="evenodd" d="M14.5323 4.09644C14.2418 3.884 13.9037 3.74595 13.5476 3.69434C13.1914 3.64274 12.8281 3.67915 12.4892 3.80039C10.9049 4.38078 9.43343 5.23198 8.14046 6.31602C7.86652 6.5486 7.65366 6.8447 7.52046 7.17846C7.38726 7.51223 7.33776 7.87352 7.3763 8.23081C7.48567 9.32894 7.29171 10.3891 6.7638 11.3021C6.23734 12.2164 5.41484 12.915 4.40859 13.3685C4.07951 13.5143 3.79114 13.7384 3.5687 14.0214C3.34626 14.3043 3.19651 14.6375 3.13255 14.9916C2.84449 16.6515 2.84449 18.3485 3.13255 20.0083C3.26817 20.7914 3.80338 21.3587 4.40859 21.6329C5.41484 22.085 6.23734 22.785 6.76525 23.6979C7.29171 24.6123 7.48567 25.671 7.3763 26.7691C7.31067 27.4283 7.53234 28.175 8.14046 28.6839C9.43342 29.768 10.9049 30.6192 12.4892 31.1996C12.8278 31.3207 13.191 31.357 13.5469 31.3054C13.9028 31.2538 14.2406 31.1158 14.5309 30.9035C15.4278 30.2589 16.4442 29.8958 17.5 29.8958C18.5559 29.8958 19.5709 30.2589 20.4678 30.9035C21.0073 31.2914 21.7657 31.4723 22.5109 31.1996C24.0952 30.6192 25.5667 29.768 26.8596 28.6839C27.4678 28.175 27.6909 27.4298 27.6238 26.7691C27.5144 25.671 27.7069 24.6108 28.2363 23.6979C28.7628 22.7835 29.5853 22.0864 30.5915 21.6329C31.1953 21.3587 31.7319 20.7914 31.8675 20.0083C32.1555 18.3485 32.1555 16.6515 31.8675 14.9916C31.8036 14.6375 31.6538 14.3043 31.4314 14.0214C31.2089 13.7384 30.9206 13.5143 30.5915 13.3685C29.5853 12.915 28.7628 12.2164 28.2348 11.3021C27.7069 10.3891 27.5144 9.32894 27.6238 8.23081C27.6622 7.87353 27.6126 7.51228 27.4795 7.17853C27.3463 6.84479 27.1335 6.54869 26.8596 6.31602C25.5667 5.23198 24.0952 4.38078 22.5109 3.80039C22.1722 3.6794 21.8091 3.64312 21.4533 3.69473C21.0974 3.74633 20.7595 3.88424 20.4692 4.09644C19.5709 4.73956 18.5544 5.10414 17.5 5.10414C16.4457 5.10414 15.4292 4.74102 14.5323 4.09644ZM13.125 17.5C13.125 16.3397 13.586 15.2269 14.4065 14.4064C15.2269 13.5859 16.3397 13.125 17.5 13.125C18.6604 13.125 19.7732 13.5859 20.5936 14.4064C21.4141 15.2269 21.875 16.3397 21.875 17.5C21.875 18.6603 21.4141 19.7731 20.5936 20.5936C19.7732 21.414 18.6604 21.875 17.5 21.875C16.3397 21.875 15.2269 21.414 14.4065 20.5936C13.586 19.7731 13.125 18.6603 13.125 17.5Z" fill="#ED413E"/>
</g>
<defs>
<clipPath id="clip0_110_690">
<rect width="35" height="35" fill="white"/>
</clipPath>
</defs>
</svg>
